<svg id="Layer_1" data-name="Layer 1" xmlns="http://www.w3.org/2000/svg" xmlns:xlink="http://www.w3.org/1999/xlink" viewBox="0 0 260.12 260"><defs><style>.cls-1{fill:#fff;}.cls-2{fill:url(#linear-gradient);}</style><linearGradient id="linear-gradient" x1="60" y1="130" x2="220" y2="130" gradientUnits="userSpaceOnUse"><stop offset="0" stop-color="#00adee"/><stop offset="1" stop-color="#8bc53f"/></linearGradient></defs><title>logo</title><path class="cls-1" d="M774.85,440.85a129.91,129.91,0,1,0-48.36,48.55l65.44,17Zm-183-64.25a80,80,0,1,1,80,80A80,80,0,0,1,591.81,376.6Z" transform="translate(-531.81 -246.6)"/><circle class="cls-2" cx="140" cy="130" r="80"/><path class="cls-1" d="M726.81,376.5V403a5,5,0,0,1-5,5h0a5,5,0,0,1-5-5V377A10,10,0,0,0,697,378.1V403a5,5,0,0,1-5,5h0a5,5,0,0,1-5-5V378.44a10.19,10.19,0,0,0-9.31-10.28,10,10,0,0,0-10.61,9.94v10a20.21,20.21,0,0,1-1.11,6.59A20,20,0,0,1,647.55,408h-.67a19.91,19.91,0,0,1-19.54-18.75V368.15h-5.55a5,5,0,0,1-5-5h0a5,5,0,0,1,5-5h5.46v-8a5,5,0,0,1,5-5h0a5,5,0,0,1,5,5v8h9.48a5,5,0,0,1,5,5h0a5,5,0,0,1-5,5H637.3v19.91a10,10,0,0,0,9.45,9.95h1a10,10,0,0,0,9.41-9.07V378.1A19.91,19.91,0,0,1,692,364.94a19.44,19.44,0,0,1,5-4.08,19.91,19.91,0,0,1,29.8,15.64Z" transform="translate(-531.81 -246.6)"/></svg>