<svg id="Layer_1" data-name="Layer 1" xmlns="http://www.w3.org/2000/svg" xmlns:xlink="http://www.w3.org/1999/xlink" viewBox="0 0 260.12 260"><defs><style>.cls-1{fill:#2c58a8;}.cls-2{fill:url(#linear-gradient);}.cls-3{fill:#fff;}</style><linearGradient id="linear-gradient" x1="60" y1="130" x2="220" y2="130" gradientUnits="userSpaceOnUse"><stop offset="0" stop-color="#00aeef"/><stop offset="1" stop-color="#8dc63f"/></linearGradient></defs><title>tm_logo</title><path class="cls-1" d="M352.48,332.22a129.91,129.91,0,1,0-48.36,48.55l65.44,17ZM169.44,268a80,80,0,1,1,80,80A80,80,0,0,1,169.44,268Z" transform="translate(-109.44 -137.97)"/><circle class="cls-2" cx="140" cy="130" r="80"/><path class="cls-3" d="M304.44,267.86v26.49a5,5,0,0,1-5,5h0a5,5,0,0,1-5-5v-26a10,10,0,0,0-19.85,1.14v24.89a5,5,0,0,1-5,5h0a5,5,0,0,1-5-5V269.8a10.18,10.18,0,0,0-9.31-10.28,10,10,0,0,0-10.6,9.94v10a20,20,0,0,1-1.12,6.59,20,20,0,0,1-18.46,13.31h-.68A19.91,19.91,0,0,1,205,280.59V259.52h-5.55a5,5,0,0,1-5-5h0a5,5,0,0,1,5-5h5.46v-8a5,5,0,0,1,5-5h0a5,5,0,0,1,5,5v8h9.48a5,5,0,0,1,5,5h0a5,5,0,0,1-5,5h-9.39v19.9a10,10,0,0,0,9.45,9.95h1a10,10,0,0,0,9.41-9.06V269.47a19.84,19.84,0,0,1,10-17.24,19.92,19.92,0,0,1,24.9,4.07,19.49,19.49,0,0,1,5-4.07,19.91,19.91,0,0,1,29.81,15.63Z" transform="translate(-109.44 -137.97)"/></svg>